<svg height="512" preserveAspectRatio="xMidYMid meet" viewBox="0 0 384 384" width="512" xmlns="http://www.w3.org/2000/svg"><g fill="#fff"><g transform="matrix(.24120801 0 0 .24120801 -.966405 -12.644669)"><path d="m273.29431 1091.0029q-17.43798 0-31.13925-10.5873-13.70127-11.2101-13.70127-27.4026v-359.96967q0-16.19241 10.58735-26.77975 11.21013-11.21013 27.40254-11.21013h179.36207q32.38482 0 60.41014 17.43798 28.64811 16.81519 46.08609 47.33166 17.43798 29.89367 17.43798 69.12913 0 23.66583-9.96456 46.08609-9.34178 22.42025-26.15697 40.48102-16.19241 18.06076-36.74431 28.02532l.62278-14.32405q17.43798 9.34177 28.64811 22.42026 11.83291 12.4557 18.06076 27.40254 6.85064 14.32405 8.09621 31.13924 2.49114 15.56963 3.11392 27.40254 1.24557 11.83292 3.73671 19.92912 3.11393 8.0962 11.21013 12.4557 13.70127 8.0962 16.8152 23.6658 3.73671 14.9469-6.85064 26.7798-6.85063 8.0962-17.43798 10.5873-10.58734 1.8684-21.17469 0-10.58734-2.4911-17.43798-6.2278-10.58734-6.2279-21.17469-18.0608-10.58734-12.4557-17.43797-33.0076-6.22785-20.5519-6.22785-52.93671 0-10.58735-3.73671-19.30633-3.73671-9.34178-10.58735-15.56963-6.85063-6.85063-17.43798-9.96456-10.58734-3.73671-24.9114-3.73671h-125.80256l9.34177-14.32405v135.14429q0 16.1925-8.71899 27.4026-8.71899 10.5873-24.28861 10.5873zm24.28861-222.95699h145.1089q11.21013 0 21.79748-9.96456 10.58734-10.58734 17.43798-28.02532 6.85063-18.06077 6.85063-39.23546 0-27.40254-14.94684-45.4633-14.32405-18.68355-31.13925-18.68355h-143.86333l7.47342-19.92912v176.24815z" transform="translate(.000024 .000017)"/><path d="m1188.8876 1011.8828q16.1924 0 26.7797 10.5874 11.2101 9.9645 11.2101 26.1569 0 15.5697-11.2101 26.157-10.5873 9.9646-26.7797 9.9646h-202.40515q-16.19241 0-27.40254-10.5874-10.58735-11.2101-10.58735-27.4025v-359.96974q0-16.19241 11.21013-26.77975 11.21013-11.21013 28.64811-11.21013 14.9468 0 26.157 11.21013 11.8329 10.58734 11.8329 26.77975v335.68114l-13.7013-10.5874z" transform="translate(.000024 .000017)"/><path d="m1177.4285 638.44334c-19.022 4.532-16 27.7-16 42.468v64c0 19.018.817 36.122-9.464 53-8.028 13.18-19.305 24.961-28.936 37l-55.2 69c-13.808 17.261-31.4367 33.296-30.3606 57 .9321 20.534 18.5026 38.05696 38.9606 38.96096 59.076 2.609 118.859.039 178 .039h56c10.444 0 21.894 1.342 32-1.774 24.947-7.692 36.509-38.57296 24.096-61.22596-7.308-13.336-19.217-25.15-28.696-37l-56-70c-11.183-13.979-25.16-27.858-31.31-45-4.351-12.129-3.09-25.348-3.09-38v-61c0-11.585 2.727-27.63-3.483-37.996-9.085-15.165-33.519-10.004-48.517-10.004-5.796 0-12.329-.819-18 .532m48 20.468v78c0 26.535-.183 52.152 15.344 75 24.687 36.326 55.216 69.701 82.656 104 9.199 11.499 28.697 27.882 26.815 44-3.104 26.57996-41.211 19-59.815 19h-173c-16.921 0-49.231 6.675-57.235-13-5.575-13.703 4.434-23.999 12.435-34l53.6-67c16.105-20.13 38.486-41.15 48.772-65 9.039-20.961 8.428-42.631 8.428-65v-76zm0 181.769c-9.18.409-12.253 10.243-7.656 17.231 14.334 21.786 34.963 41.18 51.927 61 5.293 6.184 12.139 18.221 21.729 16.756 9.981-1.525 9.99-12.3 5.152-18.756-15.157-20.227-33.179-38.757-49.573-58-5.293-6.212-12.27-18.645-21.579-18.231z"/><path d="m802.35357 605.36598c-47.9017 2.60553-87.3855 10.72277-124.2638 25.75468-28.8613 11.7249-61.4305 33.87192-78.3664 53.21298-16.3347 18.84-26.9572 40.68639-32.0681 65.93999-2.4051 12.42637-2.4051 37.88044 0 49.50511 4.1087 19.44126 13.5287 40.68642 24.4519 55.11706l5.4115 7.31551-12.8273 12.92741c-7.0149 7.1152-14.631 13.9296-16.8357 15.2324-14.0298 8.3177-32.8697 7.1151-46.2983-2.806-3.307-2.4051-7.0149-4.9104-8.2175-5.5117-5.3112-2.9061-13.1278 2.806-13.1278 9.5203 0 7.0149 13.0277 17.437 27.4582 22.0467 10.1216 3.2069 24.5523 3.6077 34.6738.902 12.5265-3.3071 19.2407-7.7164 35.2748-23.3496l14.7313-14.4306 4.3091 3.5074c35.3752 28.6608 85.8824 36.4774 131.2788 20.1427 35.2749-12.7269 63.9358-40.78651 85.5817-83.87806 12.226-24.15127 18.4392-41.6885 25.3538-70.8504 8.017-33.87191 12.8272-85.18086 11.1236-118.35129-.8017-16.23447-1.8038-19.14063-7.3155-20.84425-4.4094-1.40298-42.1896-2.10447-60.3281-1.10234zm-7.516 60.62873c-22.3474 22.34744-40.6863 40.58614-40.7865 40.58614-.2005 0-.3006-16.83571-.3006-37.47955 0-34.87405.1001-37.57979 1.8037-38.08085 2.6055-.8017 25.3539-3.60767 36.7782-4.50958 5.5116-.50106 17.437-.90192 26.5563-1.00213l16.5351-.10021zm-62.1318 15.83362v46.29829l-22.7484 22.54786c-12.6268 12.42638-28.3602 27.95934-35.0744 34.57348l-12.3262 12.02551v-68.2449-68.24492l11.324-5.31128c13.0277-6.2132 31.7675-13.02766 46.7994-17.03617 5.8124-1.60341 10.823-2.90617 11.324-2.90617.4009-.10022.7016 20.74404.7016 46.2983zm116.2467-13.62895c-1.1023 21.94656-2.2046 33.47109-4.1087 46.09793l-1.2025 7.31551h-37.68-37.6801l40.5862-40.5862c39.6843-39.68426 40.5862-40.58617 40.8868-37.37936.2005 1.80383-.1001 12.82723-.8017 24.55212zm-221.2698 164.95027-14.9317 14.93164-5.5117-7.51589c-14.9316-20.44345-21.6459-43.79302-20.5436-71.65221.6013-17.437 3.6077-29.56275 11.1237-44.7951 8.8187-17.73762 22.2472-33.67143 39.6842-46.89955l4.5095-3.40724.3007 72.25341.2004 72.25344zm210.7475-86.78432c-2.6055 13.92964-11.1236 38.2813-19.6417 56.11915l-4.9105 10.32196h-68.4452-68.3452l35.0745-35.07447 35.0745-35.07447h45.9976 45.8975zm-41.6885 92.69679c-9.8208 12.02562-17.437 20.0426-23.55 24.95298-12.3262 9.82082-28.26 17.53732-45.3964 22.04682-11.0234 3.0064-35.6757 3.7079-47.5009 1.5032-15.5329-2.9061-32.2684-9.7206-43.793-17.73759-10.8229-7.51598-11.324-5.01072 5.0108-21.44553l14.5307-14.53088h72.4539 72.554z"/></g><path d="m2273 4964c-597-72-1160-373-1551-829-491-572-689-1360-526-2094 82-372 271-754 517-1046 453-538 1139-855 1847-855 546 0 1091 192 1520 537 485 388 812 983 885 1609 92 790-222 1590-830 2112-291 250-677 442-1056 526-246 55-559 70-806 40zm525-134c776-83 1454-554 1805-1256 172-345 246-690 234-1094-10-342-78-612-231-925-116-235-229-396-406-579-352-363-764-579-1285-672-143-26-567-26-710 0-242 43-431 104-640 205-234 113-407 234-594 416-354 344-570 753-662 1255-26 139-36 455-20 611 93 897 706 1658 1561 1937 159 53 298 82 495 105 69 9 363 6 453-3z" stroke="#fff" stroke-width="268.889" transform="matrix(.07292149 0 0 -.07387001 5.296498 381.0915)"/></g></svg>