<svg enable-background="new 0 0 30 30" height="3192.0859" viewBox="0 0 10345.954 3192.0859" width="10345.955" xmlns="http://www.w3.org/2000/svg"><g fill="#fff"><g transform="translate(-1832.3206 1533.6254)"><path d="m1944.8485 1345.8829q-43.7608 0-78.1444-26.5691-34.3835-28.1321-34.3835-68.7672v-903.34964q0-40.63511 26.5691-67.20422 28.132-28.13198 68.767-28.13198h450.112q81.2702 0 151.6002 43.76087 71.8929 42.198 115.6537 118.77954 43.7609 75.01866 43.7609 173.48064 0 59.38977-25.0062 115.65376-23.4433 56.264-65.6412 101.58777-40.6352 45.32376-92.2105 70.32998l1.5629-35.94643q43.7609 23.44332 71.8928 56.26398 29.6949 31.25778 45.3238 68.7671 17.1918 35.94643 20.3175 78.14443 6.2516 39.0722 7.8145 68.7672 3.1258 29.6948 9.3773 50.0124 7.8145 20.3175 28.1321 31.2577 34.3835 20.3176 42.198 59.3899 9.3773 37.5092-17.1918 67.2042-17.1918 20.3175-43.761 26.5691-26.5691 4.6886-53.1381 0-26.5691-6.2516-43.7609-15.6289-26.5691-15.6289-53.1383-45.3238-26.5691-31.2578-43.7608-82.8331-15.6289-51.5754-15.6289-132.8456 0-26.5691-9.3774-48.4495-9.3773-23.44333-26.569-39.07223-17.1918-17.1918-43.7609-25.0062-26.5691-9.37737-62.5156-9.37737h-315.7034l23.4432-35.94644v339.14684q0 40.6351-21.8804 68.7672-21.8804 26.5691-60.9527 26.5691zm60.9527-559.51423h364.153q28.1321 0 54.7012-25.00621 26.5691-26.56911 43.7608-70.33 17.1918-45.32377 17.1918-98.46198 0-68.7671-37.5093-114.09087-35.9465-46.88666-78.1445-46.88666h-361.0272l18.7546-50.01244v442.29749z"/><path d="m3276.4254 1361.5118q-132.8454 0-231.3075-54.7012-96.8991-56.264-150.0373-151.6002-51.5753-95.3362-51.5753-215.67864 0-140.65998 56.2639-239.12196 57.8269-100.02488 150.0374-153.16309 92.2104-53.13821 195.3611-53.13821 79.7073 0 150.0373 32.82066 71.8928 32.82065 126.594 90.64753 54.701 56.264 85.9588 131.28266 32.8207 75.01865 32.8207 159.41463-1.5629 37.50933-29.6949 60.95269-28.132 23.4433-65.6413 23.4433h-597.0235l-46.8866-156.28886h573.5801l-34.3836 31.25777v-42.19799q-3.1257-45.32377-32.8206-81.27021-28.132-35.94644-71.8928-56.26399-42.1981-21.88045-90.6476-21.88045-46.8867 0-87.5218 12.50311-40.6351 12.50311-70.33 42.198-29.6949 29.69488-46.8867 79.70732-17.1917 50.01243-17.1917 126.59398 0 84.39605 34.3835 143.78575 35.9465 57.8269 90.6476 89.0847 56.264 29.6949 118.7795 29.6949 57.8269 0 92.2104-9.3774 34.3836-9.3773 54.7012-21.8804 21.8804-14.066 39.0722-23.4433 28.132-14.066 53.1382-14.066 34.3835 0 56.264 23.4433 23.4433 23.4433 23.4433 54.7011 0 42.198-43.7609 76.5815-40.6351 34.3836-114.0908 60.9527-73.4558 25.0063-151.6003 25.0063z"/><path d="m3756.2296 1216.1631q-15.6289-21.8804-14.066-56.264 1.563-34.3836 40.6351-59.3898 25.0062-15.6288 53.1383-12.5031 28.132 1.5629 54.7011 28.132 45.3238 45.3238 95.3362 70.33 50.0125 25.0062 125.0311 25.0062 23.4433-1.5628 51.5753-6.2515 28.132-6.2516 48.4496-25.0063 21.8804-20.3175 21.8804-60.9526 0-34.3835-23.4434-54.7011-23.4432-20.3176-62.5155-34.3836-37.5094-14.066-84.396-26.5691-48.4495-14.06603-100.0248-31.25773-50.0125-17.1918-92.2105-43.76093-42.1979-28.132-68.767-73.45577-26.5692-45.32377-26.5692-114.09087 0-78.14443 43.7609-132.84554 43.7609-54.70109 112.528-84.39598 70.3299-29.69488 146.9115-29.69488 48.4495 0 101.5878 12.50311 53.1382 10.94022 101.5877 37.50933 48.4496 25.00621 81.2703 67.2042 17.1917 23.44333 20.3175 56.26399 3.1258 32.82067-29.6948 59.38977-23.4434 18.75467-54.7012 17.19178-31.2578-3.12578-51.5753-21.88044-26.5691-34.38355-71.8929-54.70111-43.7609-20.31755-101.5878-20.31755-23.4433 0-51.5753 6.25155-26.5691 4.68867-46.8867 23.44334-20.3175 17.19177-20.3175 56.26399 0 35.94644 23.4434 57.82688 23.4432 20.31755 62.5155 34.38355 40.6351 12.50311 85.9588 25.00621 46.8867 12.50311 95.3363 29.69489 48.4495 17.19177 89.0846 45.32377 40.6351 28.132 65.6413 73.45581 25.0062 43.76083 25.0062 112.52803 0 79.7072-46.8866 135.9713-46.8867 56.264-117.2166 85.9588-70.3301 28.1321-143.7858 28.1321-92.2105 0-184.4209-31.2578-92.2104-32.8207-153.1631-114.0909z"/><path d="m4567.3662 525.36627h370.4047q37.5092 0 62.5155 25.00622 25.0062 25.00621 25.0062 62.51554 0 35.94644-25.0062 60.95266-25.0063 23.44333-62.5155 23.44333h-370.4047q-37.5093 0-62.5155-25.00622-25.0062-25.00622-25.0062-62.51555 0-35.94644 25.0062-59.38976 25.0062-25.00622 62.5155-25.00622zm167.2291-195.36109q40.6351 0 65.6413 28.132 26.5691 26.56911 26.5691 67.20421v695.48551q0 21.8804 7.8144 35.9464 9.3775 14.066 23.4434 20.3176 15.6289 6.2515 32.8207 6.2515 18.7546 0 34.3835-6.2515 15.6289-7.8144 35.9465-7.8144 21.8804 0 39.0722 20.3175 18.7546 20.3176 18.7546 56.264 0 43.7608-48.4495 71.8928-46.8867 28.1321-101.5877 28.1321-32.8207 0-73.4558-4.6888-39.0722-6.2515-75.0187-26.569-34.3835-21.8805-57.8268-65.6414-23.4434-43.7608-23.4434-120.3424v-703.29991q0-40.6351 26.5691-67.20421 28.1321-28.132 68.7671-28.132z"/><path d="m5373.8145 1250.5466q0 40.6351-26.5691 68.7672-26.5691 26.5691-67.2042 26.5691-40.6351 0-67.2042-26.5691-26.5692-28.1321-26.5692-68.7672v-645.47301q0-40.63511 26.5692-67.20421 26.5691-28.132 67.2042-28.132 40.6351 0 67.2042 28.132 26.5691 26.5691 26.5691 67.20421zm-95.3362-842.39698q-53.1383 0-75.0186-17.19178-21.8805-17.19177-21.8805-60.95266v-29.69488q0-45.32377 23.4433-60.95266 25.0063-17.19177 75.0187-17.19177 54.701 0 76.5815 17.19177 21.8804 17.19178 21.8804 60.95266v29.69488q0 45.32378-23.4432 62.51555-23.4434 15.62889-76.5816 15.62889z"/><path d="m6013.0331 494.1085q115.6537 0 175.0435 48.44955 60.9526 48.44954 82.8331 129.71975 23.4434 79.70732 23.4434 178.1693v400.0995q0 40.6351-26.5692 68.7672-26.5691 26.5691-67.2042 26.5691-40.6351 0-67.2042-26.5691-26.5691-28.1321-26.5691-68.7672v-400.0995q0-51.57532-14.0661-92.21042-12.503-42.198-46.8866-67.20422-34.3835-25.00622-98.462-25.00622-62.5155 0-106.2764 25.00622-42.198 25.00622-65.6414 67.20422-21.8803 40.6351-21.8803 92.21042v400.0995q0 40.6351-26.5691 68.7672-26.5692 26.5691-67.2042 26.5691-40.6352 0-67.2043-26.5691-26.5691-28.1321-26.5691-68.7672v-645.47301q0-40.63511 26.5691-67.20421 26.5691-28.132 67.2043-28.132 40.635 0 67.2042 28.132 26.5691 26.5691 26.5691 67.20421v67.20421l-23.4434-4.68867q14.066-26.5691 40.6351-56.26399 26.5691-31.25777 62.5155-57.82687 35.9465-26.56911 81.2703-42.198 45.3238-17.19177 98.462-17.19177z"/><path d="m6844.4879 494.1085q65.6414 0 120.3424 20.31755 54.7012 20.31755 93.7734 51.57532 40.6351 31.25777 62.5155 64.07843 23.4434 31.25778 23.4434 53.13822l-40.6351 20.31755v-114.09087q0-40.6351 26.569-67.20421 26.5691-28.13199 67.2043-28.13199 40.6351 0 67.2042 26.5691 26.5691 26.56911 26.5691 68.7671v695.4855q0 135.9713-59.3898 217.2415-57.8269 82.8331-153.1631 118.7796-95.3361 37.5092-204.7383 37.5092-31.2578 0-81.2703-7.8144-50.0124-7.8145-95.3362-18.7546-45.3238-10.9402-68.7671-20.3176-46.8866-20.3176-65.6413-51.5754-17.1918-29.6948-6.2515-64.0783 14.0659-45.3239 45.3237-62.5156 31.2578-15.6289 65.6413-3.1258 15.6289 4.6887 51.5754 18.7547 35.9464 14.066 78.1444 25.0062 43.7609 12.5032 76.5816 12.5032 117.2166 0 173.4805-46.8867 56.2641-46.8867 56.2641-129.7198v-135.9713l18.7546 14.066q0 20.3175-21.8804 50.0124-20.3176 28.132-57.8269 56.264-35.9465 28.132-85.9589 48.4495-50.0124 18.7548-106.2764 18.7548-110.9651 0-200.0497-54.7012-89.0847-56.264-140.66-153.163-51.5753-98.462-51.5753-225.05606 0-128.15687 51.5753-225.05597 51.5753-98.46198 139.0971-153.16308 87.5217-56.26399 195.361-56.26399zm29.695 171.91774q-70.3301 0-123.4682 34.38356-53.1383 34.38355-82.8332 93.77332-29.6949 59.38976-29.6949 134.40842 0 73.45576 29.6949 132.84556 29.6949 59.3898 82.8332 93.7733 53.1381 34.3836 123.4682 34.3836 71.8928 0 125.0311-34.3836 53.1382-34.3835 82.833-93.7733 29.6949-59.3898 29.6949-132.84556 0-75.01866-29.6949-134.40842-29.6948-59.38977-82.833-93.77332-53.1383-34.38356-125.0311-34.38356z"/><path d="m8171.3767 494.1085q40.6351 0 67.2042 26.5691 26.5691 26.56911 26.5691 68.7671v661.1019q0 40.6351-26.5691 68.7672-26.5691 26.5691-67.2042 26.5691-40.6352 0-67.2042-26.5691-26.5691-28.1321-26.5691-68.7672v-76.5815l34.3835 14.066q0 20.3175-21.8805 50.0124-21.8803 28.132-59.3897 56.264-37.5093 28.132-89.0846 48.4495-50.0125 18.7548-109.4023 18.7548-107.8393 0-195.3611-54.7012-87.5217-56.264-139.0971-153.163-50.0124-98.462-50.0124-225.05606 0-128.15687 50.0124-225.05597 51.5754-98.46198 137.5343-153.16308 85.9588-56.26399 190.6724-56.26399 67.2042 0 123.4681 20.31755 56.2641 20.31755 96.8992 51.57532 42.198 31.25777 64.0784 64.07843 23.4434 31.25778 23.4434 53.13822l-56.264 20.31755v-114.09087q0-40.6351 26.5691-67.20421 26.569-28.13199 67.2042-28.13199zm-315.7036 695.4855q68.7671 0 120.3425-34.3836 51.5753-34.3835 79.7073-93.7733 29.6949-59.3898 29.6949-132.84556 0-75.01866-29.6949-134.40842-28.132-59.38977-79.7073-93.77332-51.5754-34.38356-120.3425-34.38356-67.2042 0-118.7795 34.38356-51.5753 34.38355-81.2702 93.77332-28.132 59.38976-28.132 134.40842 0 73.45576 28.132 132.84556 29.6949 59.3898 81.2702 93.7733 51.5753 34.3836 118.7795 34.3836z"/><path d="m9358.8336 1163.0249q40.6353 0 67.2042 26.5691 28.1318 25.0062 28.1318 65.6413 0 39.0722-28.1318 65.6413-26.5689 25.0063-67.2042 25.0063h-507.9387q-40.6352 0-68.7671-26.5691-26.5691-28.1321-26.5691-68.7672v-903.34964q0-40.63511 28.132-67.20422 28.1319-28.13198 71.8929-28.13198 37.5093 0 65.6413 28.13198 29.6948 26.56911 29.6948 67.20422v842.39704l-34.3835-26.5691z"/><path d="m10302.816 494.1085q40.635 0 67.204 26.5691 26.569 26.56911 26.569 68.7671v661.1019q0 40.6351-26.569 68.7672-26.569 26.5691-67.204 26.5691-40.635 0-67.204-26.5691-26.57-28.1321-26.57-68.7672v-76.5815l34.384 14.066q0 20.3175-21.88 50.0124-21.881 28.132-59.39 56.264-37.509 28.132-89.085 48.4495-50.012 18.7548-109.402 18.7548-107.8389 0-195.3607-54.7012-87.5219-56.264-139.0978-153.163-50.0122-98.462-50.0122-225.05606 0-128.15687 50.0122-225.05597 51.5759-98.46198 137.535-153.16308 85.9581-56.26399 190.6715-56.26399 67.205 0 123.469 20.31755 56.264 20.31755 96.899 51.57532 42.198 31.25777 64.078 64.07843 23.444 31.25778 23.444 53.13822l-56.265 20.31755v-114.09087q0-40.6351 26.57-67.20421 26.569-28.13199 67.204-28.13199zm-315.704 695.4855q68.767 0 120.343-34.3836 51.575-34.3835 79.707-93.7733 29.695-59.3898 29.695-132.84556 0-75.01866-29.695-134.40842-28.132-59.38977-79.707-93.77332-51.576-34.38356-120.343-34.38356-67.204 0-118.7793 34.38356-51.575 34.38355-81.2705 93.77332-28.1318 59.38976-28.1318 134.40842 0 73.45576 28.1318 132.84556 29.6955 59.3898 81.2705 93.7733 51.5753 34.3836 118.7793 34.3836z"/><path d="m11032.682 494.1085q109.402 0 195.361 56.26399 87.522 54.7011 137.534 151.60019 51.575 96.8991 51.575 225.05597 0 128.15695-51.575 226.61895-50.012 96.899-135.971 153.163-84.396 54.7012-190.673 54.7012-62.515 0-117.216-20.3177-54.701-20.3175-96.899-51.5753-40.635-31.2578-64.079-62.5155-21.88-32.8206-21.88-54.7011l48.449-20.3175v114.0908q0 40.6351-26.569 68.7671-26.569 26.5692-67.204 26.5692-40.635 0-67.204-26.5692-26.569-26.5691-26.569-68.7671v-981.49409q0-40.6351 26.569-67.20421 26.569-28.13199 67.204-28.13199 40.635 0 67.204 28.13199 26.569 26.56911 26.569 67.20421v396.97372l-26.569-14.066q0-20.31755 21.881-48.44955 21.88-29.69488 59.39-57.82688 37.509-29.69487 85.958-48.44954 50.013-18.75466 104.714-18.75466zm-23.443 171.91774q-68.767 0-120.342 34.38356-51.576 34.38355-81.271 93.77332-28.132 57.82687-28.132 132.84553 0 73.45575 28.132 134.40845 29.695 59.3898 81.271 93.7733 51.575 34.3836 120.342 34.3836 68.767 0 118.779-34.3836 51.576-34.3835 79.708-93.7733 29.694-60.9527 29.694-134.40845 0-75.01866-29.694-132.84553-28.132-59.38977-79.708-93.77332-50.012-34.38356-118.779-34.38356z"/><path d="m11532.803 1216.1631q-15.628-21.8804-14.065-56.264 1.563-34.3836 40.635-59.3898 25.006-15.6288 53.138-12.5031 28.132 1.5629 54.701 28.132 45.323 45.3238 95.336 70.33 50.013 25.0062 125.031 25.0062 23.443-1.5628 51.576-6.2515 28.132-6.2516 48.449-25.0063 21.881-20.3175 21.881-60.9526 0-34.3835-23.443-54.7011-23.444-20.3176-62.516-34.3836-37.51-14.066-84.396-26.5691-48.45-14.06603-100.025-31.25773-50.013-17.1918-92.211-43.76093-42.197-28.132-68.767-73.45577-26.569-45.32377-26.569-114.09087 0-78.14443 43.761-132.84554 43.761-54.70109 112.528-84.39598 70.33-29.69488 146.912-29.69488 48.449 0 101.587 12.50311 53.139 10.94022 101.588 37.50933 48.45 25.00621 81.271 67.2042 17.191 23.44333 20.316 56.26399 3.127 32.82067-29.694 59.38977-23.443 18.75467-54.701 17.19178-31.258-3.12578-51.576-21.88044-26.569-34.38355-71.892-54.70111-43.761-20.31755-101.588-20.31755-23.443 0-51.576 6.25155-26.569 4.68867-46.886 23.44334-20.318 17.19177-20.318 56.26399 0 35.94644 23.443 57.82688 23.444 20.31755 62.516 34.38355 40.635 12.50311 85.959 25.00621 46.887 12.50311 95.336 29.69489 48.45 17.19177 89.085 45.32377 40.635 28.132 65.641 73.45581 25.006 43.76083 25.006 112.52803 0 79.7072-46.886 135.9713-46.887 56.264-117.217 85.9588-70.33 28.1321-143.785 28.1321-92.211 0-184.422-31.2578-92.21-32.8207-153.163-114.0909z"/></g><g transform="matrix(4.1470126 0 0 4.1470126 4376.7511 24.236489)"><g transform="matrix(.24120801 0 0 .24120801 -.966405 -12.644669)"><path d="m273.29431 1091.0029q-17.43798 0-31.13925-10.5873-13.70127-11.2101-13.70127-27.4026v-359.96967q0-16.19241 10.58735-26.77975 11.21013-11.21013 27.40254-11.21013h179.36207q32.38482 0 60.41014 17.43798 28.64811 16.81519 46.08609 47.33166 17.43798 29.89367 17.43798 69.12913 0 23.66583-9.96456 46.08609-9.34178 22.42025-26.15697 40.48102-16.19241 18.06076-36.74431 28.02532l.62278-14.32405q17.43798 9.34177 28.64811 22.42026 11.83291 12.4557 18.06076 27.40254 6.85064 14.32405 8.09621 31.13924 2.49114 15.56963 3.11392 27.40254 1.24557 11.83292 3.73671 19.92912 3.11393 8.0962 11.21013 12.4557 13.70127 8.0962 16.8152 23.6658 3.73671 14.9469-6.85064 26.7798-6.85063 8.0962-17.43798 10.5873-10.58734 1.8684-21.17469 0-10.58734-2.4911-17.43798-6.2278-10.58734-6.2279-21.17469-18.0608-10.58734-12.4557-17.43797-33.0076-6.22785-20.5519-6.22785-52.93671 0-10.58735-3.73671-19.30633-3.73671-9.34178-10.58735-15.56963-6.85063-6.85063-17.43798-9.96456-10.58734-3.73671-24.9114-3.73671h-125.80256l9.34177-14.32405v135.14429q0 16.1925-8.71899 27.4026-8.71899 10.5873-24.28861 10.5873zm24.28861-222.95699h145.1089q11.21013 0 21.79748-9.96456 10.58734-10.58734 17.43798-28.02532 6.85063-18.06077 6.85063-39.23546 0-27.40254-14.94684-45.4633-14.32405-18.68355-31.13925-18.68355h-143.86333l7.47342-19.92912v176.24815z" transform="translate(.000024 .000017)"/><path d="m1188.8876 1011.8828q16.1924 0 26.7797 10.5874 11.2101 9.9645 11.2101 26.1569 0 15.5697-11.2101 26.157-10.5873 9.9646-26.7797 9.9646h-202.40515q-16.19241 0-27.40254-10.5874-10.58735-11.2101-10.58735-27.4025v-359.96974q0-16.19241 11.21013-26.77975 11.21013-11.21013 28.64811-11.21013 14.9468 0 26.157 11.21013 11.8329 10.58734 11.8329 26.77975v335.68114l-13.7013-10.5874z" transform="translate(.000024 .000017)"/><path d="m1177.4285 638.44334c-19.022 4.532-16 27.7-16 42.468v64c0 19.018.817 36.122-9.464 53-8.028 13.18-19.305 24.961-28.936 37l-55.2 69c-13.808 17.261-31.4367 33.296-30.3606 57 .9321 20.534 18.5026 38.05696 38.9606 38.96096 59.076 2.609 118.859.039 178 .039h56c10.444 0 21.894 1.342 32-1.774 24.947-7.692 36.509-38.57296 24.096-61.22596-7.308-13.336-19.217-25.15-28.696-37l-56-70c-11.183-13.979-25.16-27.858-31.31-45-4.351-12.129-3.09-25.348-3.09-38v-61c0-11.585 2.727-27.63-3.483-37.996-9.085-15.165-33.519-10.004-48.517-10.004-5.796 0-12.329-.819-18 .532m48 20.468v78c0 26.535-.183 52.152 15.344 75 24.687 36.326 55.216 69.701 82.656 104 9.199 11.499 28.697 27.882 26.815 44-3.104 26.57996-41.211 19-59.815 19h-173c-16.921 0-49.231 6.675-57.235-13-5.575-13.703 4.434-23.999 12.435-34l53.6-67c16.105-20.13 38.486-41.15 48.772-65 9.039-20.961 8.428-42.631 8.428-65v-76zm0 181.769c-9.18.409-12.253 10.243-7.656 17.231 14.334 21.786 34.963 41.18 51.927 61 5.293 6.184 12.139 18.221 21.729 16.756 9.981-1.525 9.99-12.3 5.152-18.756-15.157-20.227-33.179-38.757-49.573-58-5.293-6.212-12.27-18.645-21.579-18.231z"/><path d="m802.35357 605.36598c-47.9017 2.60553-87.3855 10.72277-124.2638 25.75468-28.8613 11.7249-61.4305 33.87192-78.3664 53.21298-16.3347 18.84-26.9572 40.68639-32.0681 65.93999-2.4051 12.42637-2.4051 37.88044 0 49.50511 4.1087 19.44126 13.5287 40.68642 24.4519 55.11706l5.4115 7.31551-12.8273 12.92741c-7.0149 7.1152-14.631 13.9296-16.8357 15.2324-14.0298 8.3177-32.8697 7.1151-46.2983-2.806-3.307-2.4051-7.0149-4.9104-8.2175-5.5117-5.3112-2.9061-13.1278 2.806-13.1278 9.5203 0 7.0149 13.0277 17.437 27.4582 22.0467 10.1216 3.2069 24.5523 3.6077 34.6738.902 12.5265-3.3071 19.2407-7.7164 35.2748-23.3496l14.7313-14.4306 4.3091 3.5074c35.3752 28.6608 85.8824 36.4774 131.2788 20.1427 35.2749-12.7269 63.9358-40.78651 85.5817-83.87806 12.226-24.15127 18.4392-41.6885 25.3538-70.8504 8.017-33.87191 12.8272-85.18086 11.1236-118.35129-.8017-16.23447-1.8038-19.14063-7.3155-20.84425-4.4094-1.40298-42.1896-2.10447-60.3281-1.10234zm-7.516 60.62873c-22.3474 22.34744-40.6863 40.58614-40.7865 40.58614-.2005 0-.3006-16.83571-.3006-37.47955 0-34.87405.1001-37.57979 1.8037-38.08085 2.6055-.8017 25.3539-3.60767 36.7782-4.50958 5.5116-.50106 17.437-.90192 26.5563-1.00213l16.5351-.10021zm-62.1318 15.83362v46.29829l-22.7484 22.54786c-12.6268 12.42638-28.3602 27.95934-35.0744 34.57348l-12.3262 12.02551v-68.2449-68.24492l11.324-5.31128c13.0277-6.2132 31.7675-13.02766 46.7994-17.03617 5.8124-1.60341 10.823-2.90617 11.324-2.90617.4009-.10022.7016 20.74404.7016 46.2983zm116.2467-13.62895c-1.1023 21.94656-2.2046 33.47109-4.1087 46.09793l-1.2025 7.31551h-37.68-37.6801l40.5862-40.5862c39.6843-39.68426 40.5862-40.58617 40.8868-37.37936.2005 1.80383-.1001 12.82723-.8017 24.55212zm-221.2698 164.95027-14.9317 14.93164-5.5117-7.51589c-14.9316-20.44345-21.6459-43.79302-20.5436-71.65221.6013-17.437 3.6077-29.56275 11.1237-44.7951 8.8187-17.73762 22.2472-33.67143 39.6842-46.89955l4.5095-3.40724.3007 72.25341.2004 72.25344zm210.7475-86.78432c-2.6055 13.92964-11.1236 38.2813-19.6417 56.11915l-4.9105 10.32196h-68.4452-68.3452l35.0745-35.07447 35.0745-35.07447h45.9976 45.8975zm-41.6885 92.69679c-9.8208 12.02562-17.437 20.0426-23.55 24.95298-12.3262 9.82082-28.26 17.53732-45.3964 22.04682-11.0234 3.0064-35.6757 3.7079-47.5009 1.5032-15.5329-2.9061-32.2684-9.7206-43.793-17.73759-10.8229-7.51598-11.324-5.01072 5.0108-21.44553l14.5307-14.53088h72.4539 72.554z"/></g><path d="m2273 4964c-597-72-1160-373-1551-829-491-572-689-1360-526-2094 82-372 271-754 517-1046 453-538 1139-855 1847-855 546 0 1091 192 1520 537 485 388 812 983 885 1609 92 790-222 1590-830 2112-291 250-677 442-1056 526-246 55-559 70-806 40zm525-134c776-83 1454-554 1805-1256 172-345 246-690 234-1094-10-342-78-612-231-925-116-235-229-396-406-579-352-363-764-579-1285-672-143-26-567-26-710 0-242 43-431 104-640 205-234 113-407 234-594 416-354 344-570 753-662 1255-26 139-36 455-20 611 93 897 706 1658 1561 1937 159 53 298 82 495 105 69 9 363 6 453-3z" stroke="#fff" stroke-width="268.889" transform="matrix(.07292149 0 0 -.07387001 5.296498 381.0915)"/></g></g></svg>
